<mxfile host="app.diagrams.net" modified="2022-03-25T18:40:54.330Z" agent="5.0 (Windows NT 10.0; Win64; x64) AppleWebKit/537.36 (KHTML, like Gecko) Chrome/99.0.4844.82 Safari/537.36" etag="VYEkEgNOJ4yO1HOS088f" version="17.2.2" type="github">
  <diagram id="vIfoVq1wX4RId66oz7_a" name="Page-1">
    <mxGraphModel dx="2062" dy="1122" grid="1" gridSize="10" guides="1" tooltips="1" connect="1" arrows="1" fold="1" page="1" pageScale="1" pageWidth="827" pageHeight="1169" math="0" shadow="0">
      <root>
        <mxCell id="0" />
        <mxCell id="1" parent="0" />
        <mxCell id="U8cGbM71-cvQbyEx9kBK-1" value="Client" style="shape=umlLifeline;perimeter=lifelinePerimeter;whiteSpace=wrap;html=1;container=1;collapsible=0;recursiveResize=0;outlineConnect=0;" vertex="1" parent="1">
          <mxGeometry x="20" y="70" width="110" height="490" as="geometry" />
        </mxCell>
        <mxCell id="U8cGbM71-cvQbyEx9kBK-5" value="" style="rounded=0;whiteSpace=wrap;html=1;" vertex="1" parent="U8cGbM71-cvQbyEx9kBK-1">
          <mxGeometry x="45" y="70" width="20" height="390" as="geometry" />
        </mxCell>
        <mxCell id="U8cGbM71-cvQbyEx9kBK-3" value="Server" style="shape=umlLifeline;perimeter=lifelinePerimeter;whiteSpace=wrap;html=1;container=1;collapsible=0;recursiveResize=0;outlineConnect=0;" vertex="1" parent="1">
          <mxGeometry x="364" y="70" width="100" height="490" as="geometry" />
        </mxCell>
        <mxCell id="U8cGbM71-cvQbyEx9kBK-7" value="" style="rounded=0;whiteSpace=wrap;html=1;" vertex="1" parent="U8cGbM71-cvQbyEx9kBK-3">
          <mxGeometry x="40" y="90" width="20" height="350" as="geometry" />
        </mxCell>
        <mxCell id="U8cGbM71-cvQbyEx9kBK-4" value="Database" style="shape=umlLifeline;perimeter=lifelinePerimeter;whiteSpace=wrap;html=1;container=1;collapsible=0;recursiveResize=0;outlineConnect=0;" vertex="1" parent="1">
          <mxGeometry x="710" y="70" width="100" height="490" as="geometry" />
        </mxCell>
        <mxCell id="U8cGbM71-cvQbyEx9kBK-9" value="" style="rounded=0;whiteSpace=wrap;html=1;" vertex="1" parent="U8cGbM71-cvQbyEx9kBK-4">
          <mxGeometry x="40" y="130" width="20" height="50" as="geometry" />
        </mxCell>
        <mxCell id="U8cGbM71-cvQbyEx9kBK-6" value="" style="endArrow=classic;html=1;rounded=0;exitX=0.983;exitY=0.052;exitDx=0;exitDy=0;exitPerimeter=0;entryX=0;entryY=0;entryDx=0;entryDy=0;" edge="1" parent="1" source="U8cGbM71-cvQbyEx9kBK-5" target="U8cGbM71-cvQbyEx9kBK-7">
          <mxGeometry width="50" height="50" relative="1" as="geometry">
            <mxPoint x="330" y="370" as="sourcePoint" />
            <mxPoint x="310" y="150" as="targetPoint" />
          </mxGeometry>
        </mxCell>
        <mxCell id="U8cGbM71-cvQbyEx9kBK-8" value="GET api/&amp;lt;TABLE_NAME&amp;gt;" style="text;html=1;strokeColor=none;fillColor=none;align=center;verticalAlign=middle;whiteSpace=wrap;rounded=0;" vertex="1" parent="1">
          <mxGeometry x="160" y="130" width="170" height="30" as="geometry" />
        </mxCell>
        <mxCell id="U8cGbM71-cvQbyEx9kBK-10" value="" style="endArrow=classic;html=1;rounded=0;entryX=0;entryY=0;entryDx=0;entryDy=0;exitX=1.003;exitY=0.114;exitDx=0;exitDy=0;exitPerimeter=0;" edge="1" parent="1" source="U8cGbM71-cvQbyEx9kBK-7" target="U8cGbM71-cvQbyEx9kBK-9">
          <mxGeometry width="50" height="50" relative="1" as="geometry">
            <mxPoint x="430" y="200" as="sourcePoint" />
            <mxPoint x="680" y="270" as="targetPoint" />
          </mxGeometry>
        </mxCell>
        <mxCell id="U8cGbM71-cvQbyEx9kBK-11" value="SELECT * FROM &amp;lt;TABLE_NAME&amp;gt;;" style="text;html=1;strokeColor=none;fillColor=none;align=center;verticalAlign=middle;whiteSpace=wrap;rounded=0;" vertex="1" parent="1">
          <mxGeometry x="480" y="170" width="220" height="30" as="geometry" />
        </mxCell>
        <mxCell id="U8cGbM71-cvQbyEx9kBK-13" value="" style="endArrow=classic;html=1;rounded=0;" edge="1" parent="1">
          <mxGeometry width="50" height="50" relative="1" as="geometry">
            <mxPoint x="680" y="100" as="sourcePoint" />
            <mxPoint x="730" y="50" as="targetPoint" />
          </mxGeometry>
        </mxCell>
      </root>
    </mxGraphModel>
  </diagram>
</mxfile>
